<?xml version="1.0" encoding="iso-8859-1"?>
<!-- Generator: Adobe Illustrator 16.0.0, SVG Export Plug-In . SVG Version: 6.00 Build 0)  -->
<!DOCTYPE svg PUBLIC "-//W3C//DTD SVG 1.1//EN" "http://www.w3.org/Graphics/SVG/1.1/DTD/svg11.dtd">
<svg version="1.1" id="Capa_1" xmlns="http://www.w3.org/2000/svg" xmlns:xlink="http://www.w3.org/1999/xlink" x="0px" y="0px"
	 width="42.038px" height="42.038px" viewBox="0 0 42.038 42.038" style="enable-background:new 0 0 42.038 42.038;"
	 xml:space="preserve">
<g>
	<path d="M31.771,19.026c-2.512-0.146-5.09,0.162-7.566,0.539c-5.501,0.837-11.011,2.445-15.871,5.19
		c-2.96,1.673-5.898,3.739-8.267,6.202c-0.191,0.199,0.062,0.559,0.303,0.393c7.269-4.992,16.08-8.649,25.056-7.789
		c1.429,0.138,2.953,0.354,4.298,0.895c0.137,0.056,0.26-0.061,0.308-0.175c0.661-1.646,1.321-3.293,1.983-4.939
		c0.118-0.3-0.365-0.428-0.482-0.133c-0.661,1.646-1.322,3.293-1.983,4.939c0.104-0.06,0.205-0.115,0.309-0.176
		c-1.104-0.441-2.336-0.646-3.506-0.805c-3.146-0.425-6.35-0.236-9.458,0.354c-6.058,1.15-11.718,3.927-16.771,7.396
		c0.101,0.131,0.202,0.262,0.303,0.393c1.936-2.014,4.268-3.715,6.621-5.198c4.81-3.037,10.287-4.806,15.858-5.824
		c2.884-0.526,5.93-0.933,8.871-0.763C32.097,19.545,32.095,19.045,31.771,19.026z"/>
	<path d="M34.98,10.645c-3.004,0.073-6.059,0.716-8.946,1.494c-2.81,0.756-5.58,1.763-8.185,3.061
		c-2.155,1.074-4.164,2.43-6.066,3.896c-3.009,2.321-5.763,4.969-8.319,7.775c-0.815,0.896-1.61,1.812-2.375,2.752
		c-0.213,0.262-0.422,0.524-0.628,0.792C0.346,30.562,0.21,30.7,0.26,30.909c0.05,0.21,0.33,0.335,0.514,0.209
		c0.062-0.042,0.095-0.081,0.14-0.14c0.323-0.404,0.648-0.811,0.986-1.205c0.79-0.924,1.636-1.797,2.521-2.629
		c1.694-1.594,3.556-3,5.517-4.248c3.334-2.123,6.97-3.756,10.725-4.976c2.154-0.699,4.362-1.275,6.602-1.644
		c0.16-0.026,0.323-0.052,0.486-0.074c-0.146,0.02-0.053,0.009-0.002,0.013c0.209,0.014,0.418,0.028,0.626,0.042
		c1.435,0.098,2.868,0.194,4.304,0.292c0.106,0.007,0.215,0.015,0.321,0.021c0.165,0.012,0.285-0.117,0.337-0.257
		c0.661-1.742,1.322-3.485,1.983-5.229c0.16-0.423-0.518-0.604-0.676-0.186c-0.66,1.742-1.321,3.485-1.982,5.229
		c0.111-0.086,0.226-0.172,0.337-0.257c-1.21-0.082-2.42-0.165-3.63-0.247c-0.639-0.043-1.312-0.17-1.949-0.076
		c-1.917,0.282-3.812,0.758-5.67,1.305c-8.016,2.36-15.706,6.659-21.01,13.227c-0.116,0.144-0.228,0.289-0.342,0.433
		c-0.036,0.045-0.095,0.082,0.024,0c0.171,0.069,0.343,0.142,0.514,0.209l0,0c-0.012,0.09-0.023,0.182-0.035,0.271
		c0.226-0.477,0.798-1.018,1.183-1.479c1.04-1.242,2.127-2.443,3.247-3.615c3.185-3.327,6.685-6.432,10.623-8.844
		c3.853-2.358,8.245-3.859,12.643-4.821c2.084-0.456,4.248-0.838,6.389-0.891C35.433,11.334,35.435,10.634,34.98,10.645z"/>
	<path d="M34.547,11.401c0.435,1.721,0.866,3.441,1.3,5.162c0.051,0.204,0.235,0.317,0.435,0.331
		c1.771,0.119,3.541,0.239,5.312,0.359c-0.075-0.279-0.151-0.56-0.228-0.839c-1.503,0.944-3.005,1.888-4.509,2.832
		c-0.174,0.108-0.256,0.308-0.207,0.508c0.435,1.722,0.867,3.442,1.301,5.163c0.251-0.146,0.501-0.291,0.752-0.438
		c-1.362-1.137-2.725-2.272-4.086-3.412c-0.153-0.127-0.363-0.185-0.545-0.068c-1.502,0.941-3.006,1.888-4.508,2.83
		c0.22,0.17,0.438,0.339,0.66,0.508c0.662-1.646,1.321-3.293,1.982-4.938c0.055-0.135-0.006-0.346-0.116-0.438
		c-1.36-1.138-2.724-2.275-4.085-3.413c-0.105,0.256-0.212,0.513-0.316,0.769c1.77,0.12,3.539,0.24,5.31,0.36
		c0.214,0.015,0.362-0.152,0.436-0.331c0.66-1.646,1.32-3.294,1.981-4.941c0.216-0.538-0.653-0.771-0.868-0.238
		c-0.66,1.647-1.32,3.294-1.982,4.941c0.146-0.11,0.291-0.221,0.435-0.331c-1.771-0.12-3.54-0.24-5.31-0.36
		c-0.379-0.025-0.616,0.52-0.318,0.769c1.361,1.138,2.726,2.275,4.085,3.413c-0.039-0.146-0.077-0.291-0.116-0.438
		c-0.659,1.646-1.321,3.293-1.981,4.939c-0.15,0.375,0.349,0.703,0.66,0.508c1.502-0.942,3.006-1.887,4.508-2.829
		c-0.182-0.023-0.362-0.048-0.545-0.07c1.362,1.137,2.725,2.272,4.086,3.412c0.336,0.278,0.869,0.022,0.752-0.438
		c-0.434-1.722-0.866-3.44-1.299-5.162c-0.069,0.168-0.14,0.338-0.207,0.508c1.502-0.944,3.004-1.889,4.508-2.833
		c0.392-0.246,0.216-0.809-0.228-0.839c-1.771-0.119-3.541-0.239-5.312-0.359c0.146,0.11,0.288,0.221,0.434,0.331
		c-0.433-1.721-0.865-3.441-1.299-5.162C35.273,10.599,34.405,10.839,34.547,11.401z"/>
</g>
<g>
</g>
<g>
</g>
<g>
</g>
<g>
</g>
<g>
</g>
<g>
</g>
<g>
</g>
<g>
</g>
<g>
</g>
<g>
</g>
<g>
</g>
<g>
</g>
<g>
</g>
<g>
</g>
<g>
</g>
</svg>
